<?xml version="1.0" standalone="no"?>
<!DOCTYPE svg PUBLIC "-//W3C//DTD SVG 20010904//EN"
 "http://www.w3.org/TR/2001/REC-SVG-20010904/DTD/svg10.dtd">
<svg version="1.0" xmlns="http://www.w3.org/2000/svg"
 width="512.000000pt" height="512.000000pt" viewBox="0 0 512.000000 512.000000"
 preserveAspectRatio="xMidYMid meet">
<metadata>
Created by potrace 1.14, written by Peter Selinger 2001-2017
</metadata>
<g transform="translate(0.000000,512.000000) scale(0.100000,-0.100000)"
fill="#000000" stroke="none">
<path d="M669 5095 c-135 -22 -289 -126 -383 -258 -127 -179 -212 -429 -252
-739 -3 -24 -7 -54 -10 -68 -24 -145 -25 -872 0 -1005 2 -11 7 -65 11 -120 8
-114 22 -228 40 -325 8 -46 75 -437 81 -472 10 -70 14 -89 28 -173 22 -125 21
-120 51 -215 56 -176 154 -338 285 -471 101 -102 93 -97 575 -424 209 -142
430 -292 490 -333 61 -42 151 -103 200 -137 349 -239 398 -266 535 -304 64
-18 124 -27 238 -35 47 -3 166 12 237 30 112 29 225 93 508 285 155 106 332
226 392 267 851 580 825 561 930 674 114 123 210 287 259 443 28 90 41 156
125 655 68 403 68 400 76 535 4 55 8 102 10 105 8 14 20 315 20 535 0 289 -13
498 -40 635 -3 14 -10 52 -16 85 -21 118 -74 288 -124 400 -128 286 -395 473
-612 429 -69 -14 -90 -24 -155 -77 -73 -59 -125 -137 -191 -287 -20 -45 -71
-209 -82 -265 -13 -59 -26 -127 -30 -155 -3 -19 -8 -42 -10 -50 -2 -8 -7 -42
-11 -75 -3 -33 -8 -68 -10 -78 -4 -22 -17 -175 -18 -205 0 -16 -5 -22 -15 -19
-9 3 -250 106 -536 230 -286 123 -546 230 -577 236 -122 26 -265 10 -376 -40
-23 -11 -194 -85 -380 -165 -185 -80 -350 -152 -367 -159 -136 -61 -248 -105
-253 -100 -3 3 -7 20 -8 38 -8 105 -30 287 -44 362 -5 28 -12 65 -15 83 -23
140 -92 356 -147 460 -111 208 -252 297 -429 267z m136 -166 c137 -64 241
-304 309 -714 9 -49 18 -120 21 -156 4 -36 8 -79 10 -95 2 -16 4 -58 6 -93 l2
-63 -309 -134 c-352 -152 -377 -163 -459 -218 -61 -40 -164 -138 -201 -189
l-19 -28 -4 73 c-9 171 -2 516 13 663 44 409 154 710 313 855 53 48 128 94
183 111 45 13 89 9 135 -12z m3712 -18 c218 -109 362 -404 418 -856 4 -27 8
-61 10 -75 15 -96 23 -458 15 -656 l-3 -61 -71 72 c-125 127 -178 156 -653
360 -160 69 -270 122 -268 128 2 7 6 57 9 113 4 55 8 109 10 120 2 10 7 44 10
74 7 58 8 68 25 165 16 85 17 93 36 165 53 207 113 339 190 416 29 29 68 57
86 63 52 16 121 5 186 -28z"/>
</g>
</svg>
